# xmcd
#
# Track frame offsets: 
#        150
#        24082
#        47440
#        72641
#        103981
#        140945
#        164631
#        181328
#        200868
#        225235
#        260596
#        285853
#
# Disc length: 4108 seconds
#
# Revision: 0
# Processed by: cddbd v1.5.2PL0 Copyright (c) Steve Scherf et al.
# Submitted via: ExactAudioCopyFreeDBPlugin 1.0
#
DISCID=b0100a0c
DTITLE=Nick Woodland - Something I Heard - Live
DYEAR=2012
DGENRE=Blues
TTITLE0=Cracking Up
TTITLE1=Blues Movin' In
TTITLE2=Way To My Heart
TTITLE3=No Other Woman
TTITLE4=Something I Heard
TTITLE5=Blue To Me
TTITLE6=Rocket Coffee
TTITLE7=I Guess Things Happen That Way
TTITLE8=Lucy Malone
TTITLE9=Somewhere Trouble Don't Go
TTITLE10=Little Puppet
TTITLE11=Tailspin
EXTD=
EXTT0=
EXTT1=
EXTT2=
EXTT3=
EXTT4=
EXTT5=
EXTT6=
EXTT7=
EXTT8=
EXTT9=
EXTT10=
EXTT11=
PLAYORDER=
